<?xml version="1.0" encoding="UTF-8" standalone="no"?>
<svg
   xmlns:dc="http://purl.org/dc/elements/1.1/"
   xmlns:cc="http://creativecommons.org/ns#"
   xmlns:rdf="http://www.w3.org/1999/02/22-rdf-syntax-ns#"
   xmlns:svg="http://www.w3.org/2000/svg"
   xmlns="http://www.w3.org/2000/svg"
   version="1.1"
   id="Capa_1"
   x="0px"
   y="0px"
   viewBox="0 0 512 512"
   style="enable-background:new 0 0 512 512;"
   xml:space="preserve"><metadata
   id="metadata2384"><rdf:RDF><cc:Work
       rdf:about=""><dc:format>image/svg+xml</dc:format><dc:type
         rdf:resource="http://purl.org/dc/dcmitype/StillImage" /><dc:title></dc:title></cc:Work></rdf:RDF></metadata><defs
   id="defs2382">
	
	
	
	
	
	
	
	
</defs>

<g
   id="g2349">
</g>
<g
   id="g2351">
</g>
<g
   id="g2353">
</g>
<g
   id="g2355">
</g>
<g
   id="g2357">
</g>
<g
   id="g2359">
</g>
<g
   id="g2361">
</g>
<g
   id="g2363">
</g>
<g
   id="g2365">
</g>
<g
   id="g2367">
</g>
<g
   id="g2369">
</g>
<g
   id="g2371">
</g>
<g
   id="g2373">
</g>
<g
   id="g2375">
</g>
<g
   id="g2377">
</g>
<path
   id="path2948"
   d="m 478.41485,108.65931 c -0.018,-0.182 -0.049,-0.359 -0.08,-0.53701 -0.011,-0.063 -0.016,-0.128 -0.029,-0.191 -0.042,-0.20999 -0.096,-0.416 -0.156,-0.619 -0.009,-0.03 -0.014,-0.061 -0.023,-0.091 -0.063,-0.207 -0.138,-0.40901 -0.218,-0.60801 -0.011,-0.027 -0.019,-0.055 -0.03,-0.081 -0.078,-0.18899 -0.168,-0.372 -0.261,-0.552 -0.019,-0.037 -0.034,-0.075 -0.054,-0.112 -0.09,-0.167 -0.189,-0.327 -0.291,-0.486 -0.031,-0.048 -0.057,-0.098 -0.088,-0.145 -0.101,-0.151 -0.212,-0.295 -0.324,-0.438 -0.039,-0.05 -0.073,-0.102 -0.113,-0.151 -0.156,-0.18899 -0.32,-0.372 -0.493,-0.545 l -95.998,-95.996995 c -0.173,-0.173 -0.355,-0.338 -0.545,-0.493 -0.049,-0.04 -0.101,-0.074 -0.151,-0.113 -0.143,-0.112 -0.287,-0.223 -0.438,-0.324 -0.047,-0.032 -0.097,-0.058 -0.145,-0.088 -0.159,-0.101 -0.319,-0.201 -0.486,-0.291 -0.036,-0.02 -0.075,-0.035 -0.112,-0.054 -0.181,-0.093 -0.364,-0.183 -0.552,-0.261 -0.027,-0.011 -0.054,-0.019 -0.081,-0.03 -0.199,-0.08 -0.401,-0.155 -0.608,-0.218 -0.03,-0.009 -0.061,-0.015 -0.091,-0.023 -0.203,-0.059 -0.409,-0.114 -0.619,-0.156 -0.063,-0.013 -0.128,-0.018 -0.191,-0.029 -0.177,-0.031 -0.355,-0.062 -0.537,-0.08 -0.247,-0.025 -0.497,-0.038 -0.748,-0.038 h -224 c -21.78,0 -39.5,17.72 -39.5,39.5 v 40.5 h -88.5 c -17.369,0 -31.5,14.131005 -31.5,31.500005 v 80 c 0,17.36899 14.131,31.5 31.5,31.5 h 88.5 V 477.4083 c 0,21.78 17.72,39.50001 39.5,39.50001 h 288 c 21.78,0 39.5,-17.72001 39.5,-39.50001 V 109.40831 c 0,-0.25101 -0.013,-0.50101 -0.038,-0.749 z m -95.962,-77.145005 70.394,70.394005 h -45.894 c -13.509,0 -24.5,-10.991005 -24.5,-24.500005 z m -376,165.894005 v -80 c 0,-9.098 7.402,-16.5 16.5,-16.5 h 304 c 9.098,0 16.5,7.402 16.5,16.5 v 80 c 0,9.098 -7.402,16.5 -16.5,16.5 h -207.981 c -0.007,0 -0.013,-0.001 -0.019,-0.001 -0.006,0 -0.013,0.001 -0.019,0.001 h -95.981 c -9.098,0 -16.5,-7.402 -16.5,-16.5 z m 432.5,304.49999 h -288 c -13.509,0 -24.5,-10.991 -24.5,-24.5 V 228.90831 h 200.5 c 17.369,0 31.5,-14.13101 31.5,-31.5 v -80 c 0,-17.369 -14.131,-31.500005 -31.5,-31.500005 h -200.5 v -40.5 c 0,-13.509 10.991,-24.5 24.5,-24.5 h 216.5 v 56.5 c 0,21.78 17.72,39.500005 39.5,39.500005 h 56.5 V 477.4083 c 0,13.509 -10.991,24.5 -24.5,24.5 z" /><path
   id="path2958"
   d="m 321.32485,286.2933 c -3.929,-1.309 -8.177,0.814 -9.487,4.744 l -48,144 c -1.31,3.929 0.814,8.17701 4.744,9.48701 0.787,0.262 1.586,0.387 2.373,0.387 3.14,0 6.066,-1.988 7.114,-5.13 l 48,-144 c 1.309,-3.931 -0.815,-8.178 -4.744,-9.48801 z" /><path
   id="path2960"
   d="m 252.25585,304.1053 c -2.929,-2.92899 -7.678,-2.92899 -10.606,0 l -56,56 c -2.929,2.929 -2.929,7.678 0,10.606 l 56,56 c 1.464,1.464 3.384,2.197 5.303,2.197 1.919,0 3.839,-0.732 5.303,-2.197 2.929,-2.929 2.929,-7.678 0,-10.606 l -50.697,-50.697 50.697,-50.697 c 2.929,-2.928 2.929,-7.678 0,-10.606 z" /><path
   id="path2962"
   d="m 348.25585,304.1053 c -2.929,-2.92899 -7.678,-2.92899 -10.606,0 -2.929,2.929 -2.929,7.678 0,10.606 l 50.697,50.697 -50.697,50.697 c -2.929,2.929 -2.929,7.678 0,10.606 1.464,1.464 3.384,2.197 5.303,2.197 1.919,0 3.839,-0.732 5.303,-2.197 l 56,-56 c 2.929,-2.929 2.929,-7.678 0,-10.606 z" /><g
   id="g2966"
   transform="translate(-20.54715,5.908305)">
</g><g
   id="g2968"
   transform="translate(-20.54715,5.908305)">
</g><g
   id="g2970"
   transform="translate(-20.54715,5.908305)">
</g><g
   id="g2972"
   transform="translate(-20.54715,5.908305)">
</g><g
   id="g2974"
   transform="translate(-20.54715,5.908305)">
</g><g
   id="g2976"
   transform="translate(-20.54715,5.908305)">
</g><g
   id="g2978"
   transform="translate(-20.54715,5.908305)">
</g><g
   id="g2980"
   transform="translate(-20.54715,5.908305)">
</g><g
   id="g2982"
   transform="translate(-20.54715,5.908305)">
</g><g
   id="g2984"
   transform="translate(-20.54715,5.908305)">
</g><g
   id="g2986"
   transform="translate(-20.54715,5.908305)">
</g><g
   id="g2988"
   transform="translate(-20.54715,5.908305)">
</g><g
   id="g2990"
   transform="translate(-20.54715,5.908305)">
</g><g
   id="g2992"
   transform="translate(-20.54715,5.908305)">
</g><g
   id="g2994"
   transform="translate(-20.54715,5.908305)">
</g><flowRoot
   xml:space="preserve"
   id="flowRoot3098"
   style="font-style:normal;font-weight:normal;font-size:40px;line-height:125%;font-family:Sans;letter-spacing:0px;word-spacing:0px;fill:none;fill-opacity:1;stroke:none;stroke-width:1px;stroke-linecap:butt;stroke-linejoin:miter;stroke-opacity:1;"><flowRegion
     id="flowRegion3100"
     style="fill:none;fill-opacity:1;"><rect
       id="rect3102"
       width="322.44196"
       height="98.706726"
       x="15.793076"
       y="107.96048"
       style="fill:none;fill-opacity:1;" /></flowRegion><flowPara
     id="flowPara3104" /></flowRoot><flowRoot
   xml:space="preserve"
   id="flowRoot3106"
   style="fill:black;stroke:none;stroke-opacity:1;stroke-width:1px;stroke-linejoin:miter;stroke-linecap:butt;fill-opacity:1;font-family:Sans;font-style:normal;font-weight:normal;font-size:40px;line-height:125%;letter-spacing:0px;word-spacing:0px"><flowRegion
     id="flowRegion3108"><rect
       id="rect3110"
       width="661.9931"
       height="231.63177"
       x="-219.78697"
       y="-301.34341" /></flowRegion><flowPara
     id="flowPara3112" /></flowRoot><flowRoot
   xml:space="preserve"
   id="flowRoot3116"
   style="fill:black;stroke:none;stroke-opacity:1;stroke-width:1px;stroke-linejoin:miter;stroke-linecap:butt;fill-opacity:1;font-family:Sans;font-style:normal;font-weight:normal;font-size:40px;line-height:125%;letter-spacing:0px;word-spacing:0px"><flowRegion
     id="flowRegion3118"><rect
       id="rect3120"
       width="404.03952"
       height="180.30428"
       x="-330.3385"
       y="-259.22855" /></flowRegion><flowPara
     id="flowPara3122" /></flowRoot><flowRoot
   xml:space="preserve"
   id="flowRoot3124"
   style="fill:black;stroke:none;stroke-opacity:1;stroke-width:1px;stroke-linejoin:miter;stroke-linecap:butt;fill-opacity:1;font-family:Sans;font-style:normal;font-weight:normal;font-size:40px;line-height:125%;letter-spacing:0px;word-spacing:0px"><flowRegion
     id="flowRegion3126"><rect
       id="rect3128"
       width="344.81549"
       height="94.758453"
       x="3.9482689"
       y="111.90874" /></flowRegion><flowPara
     id="flowPara3130" /></flowRoot><flowRoot
   xml:space="preserve"
   id="flowRoot3132"
   style="fill:black;stroke:none;stroke-opacity:1;stroke-width:1px;stroke-linejoin:miter;stroke-linecap:butt;fill-opacity:1;font-family:Sans;font-style:normal;font-weight:normal;font-size:40px;line-height:125%;letter-spacing:0px;word-spacing:0px"><flowRegion
     id="flowRegion3134"><rect
       id="rect3136"
       width="313.22934"
       height="100.02281"
       x="18.425255"
       y="105.3283" /></flowRegion><flowPara
     id="flowPara3138" /></flowRoot><flowRoot
   xml:space="preserve"
   id="flowRoot3140"
   style="font-style:normal;font-weight:normal;font-size:40px;line-height:125%;font-family:Sans;letter-spacing:0px;word-spacing:0px;fill:#000000;fill-opacity:1;stroke:none;stroke-width:1px;stroke-linecap:butt;stroke-linejoin:miter;stroke-opacity:1"><flowRegion
     id="flowRegion3142"><rect
       id="rect3144"
       width="350.07983"
       height="103.97108"
       x="6.5804482"
       y="107.96048" /></flowRegion><flowPara
     id="flowPara3146" /></flowRoot><flowRoot
   xml:space="preserve"
   id="flowRoot3148"
   style="font-style:normal;font-weight:normal;font-size:40px;line-height:125%;font-family:Sans;letter-spacing:0px;word-spacing:0px;fill:#000000;fill-opacity:1;stroke:none;stroke-width:1px;stroke-linecap:butt;stroke-linejoin:miter;stroke-opacity:1"
   transform="matrix(1.1431949,0,0,1.1431949,10.406151,-4.2233613)"><flowRegion
     id="flowRegion3150"><rect
       id="rect3152"
       width="309.28107"
       height="86.861916"
       x="21.057434"
       y="113.22484" /></flowRegion><flowPara
     id="flowPara3154"
     style="font-style:normal;font-variant:normal;font-weight:normal;font-stretch:condensed;font-size:96px;font-family:Impact;-inkscape-font-specification:'Impact, Condensed';font-variant-ligatures:normal;font-variant-caps:normal;font-variant-numeric:normal;font-feature-settings:normal;text-align:start;writing-mode:lr-tb;text-anchor:start">head</flowPara></flowRoot></svg>