<?xml version="1.0" encoding="UTF-8" standalone="no"?>
<svg
   xmlns:dc="http://purl.org/dc/elements/1.1/"
   xmlns:cc="http://creativecommons.org/ns#"
   xmlns:rdf="http://www.w3.org/1999/02/22-rdf-syntax-ns#"
   xmlns:svg="http://www.w3.org/2000/svg"
   xmlns="http://www.w3.org/2000/svg"
   xml:space="preserve"
   style="enable-background:new 0 0 512 512;"
   viewBox="0 0 512 512"
   y="0px"
   x="0px"
   id="Capa_1"
   version="1.1"><metadata
   id="metadata2384"><rdf:RDF><cc:Work
       rdf:about=""><dc:format>image/svg+xml</dc:format><dc:type
         rdf:resource="http://purl.org/dc/dcmitype/StillImage" /><dc:title></dc:title></cc:Work></rdf:RDF></metadata><defs
   id="defs2382" />

<g
   id="g2349">
</g>
<g
   id="g2351">
</g>
<g
   id="g2353">
</g>
<g
   id="g2355">
</g>
<g
   id="g2357">
</g>
<g
   id="g2359">
</g>
<g
   id="g2361">
</g>
<g
   id="g2363">
</g>
<g
   id="g2365">
</g>
<g
   id="g2367">
</g>
<g
   id="g2369">
</g>
<g
   id="g2371">
</g>
<g
   id="g2373">
</g>
<g
   id="g2375">
</g>
<g
   id="g2377">
</g>
<g
   transform="translate(-20.54715,5.908305)"
   id="g2964">
	<path
   id="path2948"
   d="m 498.962,102.751 c -0.018,-0.182 -0.049,-0.359 -0.08,-0.537 -0.011,-0.063 -0.016,-0.128 -0.029,-0.191 -0.042,-0.21 -0.096,-0.416 -0.156,-0.619 -0.009,-0.03 -0.014,-0.061 -0.023,-0.091 -0.063,-0.207 -0.138,-0.409 -0.218,-0.608 -0.011,-0.027 -0.019,-0.055 -0.03,-0.081 -0.078,-0.189 -0.168,-0.372 -0.261,-0.552 -0.019,-0.037 -0.034,-0.075 -0.054,-0.112 -0.09,-0.167 -0.189,-0.327 -0.291,-0.486 -0.031,-0.048 -0.057,-0.098 -0.088,-0.145 -0.101,-0.151 -0.212,-0.295 -0.324,-0.438 -0.039,-0.05 -0.073,-0.102 -0.113,-0.151 -0.156,-0.189 -0.32,-0.372 -0.493,-0.545 L 400.804,2.198 C 400.631,2.025 400.449,1.86 400.259,1.705 400.21,1.665 400.158,1.631 400.108,1.592 399.965,1.48 399.821,1.369 399.67,1.268 399.623,1.236 399.573,1.21 399.525,1.18 399.366,1.079 399.206,0.979 399.039,0.889 399.003,0.869 398.964,0.854 398.927,0.835 398.746,0.742 398.563,0.652 398.375,0.574 398.348,0.563 398.321,0.555 398.294,0.544 398.095,0.464 397.893,0.389 397.686,0.326 397.656,0.317 397.625,0.311 397.595,0.303 397.392,0.244 397.186,0.189 396.976,0.147 396.913,0.134 396.848,0.129 396.785,0.118 396.608,0.087 396.43,0.056 396.248,0.038 396.001,0.013 395.751,0 395.5,0 h -224 C 149.72,0 132,17.72 132,39.5 V 80 H 43.5 C 26.131,80 12,94.131 12,111.5 v 80 C 12,208.869 26.131,223 43.5,223 H 132 v 248.5 c 0,21.78 17.72,39.5 39.5,39.5 h 288 c 21.78,0 39.5,-17.72 39.5,-39.5 v -368 c 0,-0.251 -0.013,-0.501 -0.038,-0.749 z M 403,25.606 473.394,96 H 427.5 C 413.991,96 403,85.009 403,71.5 Z M 27,191.5 v -80 C 27,102.402 34.402,95 43.5,95 h 304 c 9.098,0 16.5,7.402 16.5,16.5 v 80 c 0,9.098 -7.402,16.5 -16.5,16.5 H 139.519 c -0.007,0 -0.013,-0.001 -0.019,-0.001 -0.006,0 -0.013,0.001 -0.019,0.001 H 43.5 C 34.402,208 27,200.598 27,191.5 Z M 459.5,496 h -288 C 157.991,496 147,485.009 147,471.5 V 223 h 200.5 c 17.369,0 31.5,-14.131 31.5,-31.5 v -80 C 379,94.131 364.869,80 347.5,80 H 147 V 39.5 C 147,25.991 157.991,15 171.5,15 H 388 v 56.5 c 0,21.78 17.72,39.5 39.5,39.5 H 484 v 360.5 c 0,13.509 -10.991,24.5 -24.5,24.5 z" />
	<path
   id="path2950"
   d="m 115.5,112 c -4.142,0 -7.5,3.358 -7.5,7.5 V 152 H 67 v -32.5 c 0,-4.142 -3.358,-7.5 -7.5,-7.5 -4.142,0 -7.5,3.358 -7.5,7.5 v 64 c 0,4.142 3.358,7.5 7.5,7.5 4.142,0 7.5,-3.358 7.5,-7.5 V 167 h 41 v 16.5 c 0,4.142 3.358,7.5 7.5,7.5 4.142,0 7.5,-3.358 7.5,-7.5 v -64 c 0,-4.142 -3.358,-7.5 -7.5,-7.5 z" />
	<path
   id="path2952"
   d="m 211.5,191 c 4.142,0 7.5,-3.358 7.5,-7.5 v -36.923 l 10.069,16.782 c 1.355,2.259 3.797,3.641 6.431,3.641 h 8 c 2.634,0 5.076,-1.382 6.431,-3.641 L 260,146.577 V 183.5 c 0,4.142 3.358,7.5 7.5,7.5 4.142,0 7.5,-3.358 7.5,-7.5 v -64 c 0,-3.371 -2.249,-6.328 -5.498,-7.228 -3.249,-0.9 -6.698,0.478 -8.433,3.369 L 239.5,151.589 217.931,115.641 c -1.734,-2.891 -5.186,-4.267 -8.433,-3.369 -3.249,0.9 -5.498,3.857 -5.498,7.228 v 64 c 0,4.142 3.358,7.5 7.5,7.5 z" />
	<path
   id="path2954"
   d="M 139.5,127 H 156 v 56.5 c 0,4.142 3.358,7.5 7.5,7.5 4.142,0 7.5,-3.358 7.5,-7.5 V 127 h 16.5 c 4.142,0 7.5,-3.358 7.5,-7.5 0,-4.142 -3.358,-7.5 -7.5,-7.5 h -48 c -4.142,0 -7.5,3.358 -7.5,7.5 0,4.142 3.358,7.5 7.5,7.5 z" />
	<path
   id="path2956"
   d="m 299.5,191 h 40 c 4.142,0 7.5,-3.358 7.5,-7.5 0,-4.142 -3.358,-7.5 -7.5,-7.5 H 307 v -56.5 c 0,-4.142 -3.358,-7.5 -7.5,-7.5 -4.142,0 -7.5,3.358 -7.5,7.5 v 64 c 0,4.142 3.358,7.5 7.5,7.5 z" />
	<path
   id="path2958"
   d="m 341.872,280.385 c -3.929,-1.309 -8.177,0.814 -9.487,4.744 l -48,144 c -1.31,3.929 0.814,8.177 4.744,9.487 0.787,0.262 1.586,0.387 2.373,0.387 3.14,0 6.066,-1.988 7.114,-5.13 l 48,-144 c 1.309,-3.931 -0.815,-8.178 -4.744,-9.488 z" />
	<path
   id="path2960"
   d="m 272.803,298.197 c -2.929,-2.929 -7.678,-2.929 -10.606,0 l -56,56 c -2.929,2.929 -2.929,7.678 0,10.606 l 56,56 c 1.464,1.464 3.384,2.197 5.303,2.197 1.919,0 3.839,-0.732 5.303,-2.197 2.929,-2.929 2.929,-7.678 0,-10.606 L 222.106,359.5 272.803,308.803 c 2.929,-2.928 2.929,-7.678 0,-10.606 z" />
	<path
   id="path2962"
   d="m 368.803,298.197 c -2.929,-2.929 -7.678,-2.929 -10.606,0 -2.929,2.929 -2.929,7.678 0,10.606 l 50.697,50.697 -50.697,50.697 c -2.929,2.929 -2.929,7.678 0,10.606 1.464,1.464 3.384,2.197 5.303,2.197 1.919,0 3.839,-0.732 5.303,-2.197 l 56,-56 c 2.929,-2.929 2.929,-7.678 0,-10.606 z" />
</g><g
   transform="translate(-20.54715,5.908305)"
   id="g2966">
</g><g
   transform="translate(-20.54715,5.908305)"
   id="g2968">
</g><g
   transform="translate(-20.54715,5.908305)"
   id="g2970">
</g><g
   transform="translate(-20.54715,5.908305)"
   id="g2972">
</g><g
   transform="translate(-20.54715,5.908305)"
   id="g2974">
</g><g
   transform="translate(-20.54715,5.908305)"
   id="g2976">
</g><g
   transform="translate(-20.54715,5.908305)"
   id="g2978">
</g><g
   transform="translate(-20.54715,5.908305)"
   id="g2980">
</g><g
   transform="translate(-20.54715,5.908305)"
   id="g2982">
</g><g
   transform="translate(-20.54715,5.908305)"
   id="g2984">
</g><g
   transform="translate(-20.54715,5.908305)"
   id="g2986">
</g><g
   transform="translate(-20.54715,5.908305)"
   id="g2988">
</g><g
   transform="translate(-20.54715,5.908305)"
   id="g2990">
</g><g
   transform="translate(-20.54715,5.908305)"
   id="g2992">
</g><g
   transform="translate(-20.54715,5.908305)"
   id="g2994">
</g></svg>