<?xml version="1.0" encoding="UTF-8" standalone="no"?>
<svg
   xmlns:dc="http://purl.org/dc/elements/1.1/"
   xmlns:cc="http://creativecommons.org/ns#"
   xmlns:rdf="http://www.w3.org/1999/02/22-rdf-syntax-ns#"
   xmlns:svg="http://www.w3.org/2000/svg"
   xmlns="http://www.w3.org/2000/svg"
   xmlns:sodipodi="http://sodipodi.sourceforge.net/DTD/sodipodi-0.dtd"
   xmlns:inkscape="http://www.inkscape.org/namespaces/inkscape"
   id="svg8"
   version="1.1"
   viewBox="0 0 210 297"
   height="297mm"
   width="210mm"
   sodipodi:docname="option.svg"
   inkscape:export-filename="/home/radoslaw/Dokumenty/Programy/edytor_html/e_html_python/icons/legend.png"
   inkscape:export-xdpi="9.3210278"
   inkscape:export-ydpi="9.3210278"
   inkscape:version="0.92.3 (2405546, 2018-03-11)">
  <sodipodi:namedview
     pagecolor="#ffffff"
     bordercolor="#666666"
     borderopacity="1"
     objecttolerance="10"
     gridtolerance="10"
     guidetolerance="10"
     inkscape:pageopacity="0"
     inkscape:pageshadow="2"
     inkscape:window-width="1920"
     inkscape:window-height="1025"
     id="namedview1848"
     showgrid="false"
     inkscape:zoom="0.5946522"
     inkscape:cx="367.36584"
     inkscape:cy="545.72849"
     inkscape:window-x="0"
     inkscape:window-y="27"
     inkscape:window-maximized="1"
     inkscape:current-layer="svg8" />
  <defs
     id="defs2" />
  <metadata
     id="metadata5">
    <rdf:RDF>
      <cc:Work
         rdf:about="">
        <dc:format>image/svg+xml</dc:format>
        <dc:type
           rdf:resource="http://purl.org/dc/dcmitype/StillImage" />
        <dc:title></dc:title>
      </cc:Work>
    </rdf:RDF>
  </metadata>
  <g
     id="g827"
     transform="matrix(0.26458333,0,0,0.26458333,16.625221,57.962876)">
    <g
       id="g825">
      <path
         id="path815"
         d="M 315.36,4.64 C 312.341,1.645 308.253,-0.024 304,0 H 48 C 21.49,0 0,21.491 0,48 v 416 c 0,26.51 21.49,48 48,48 H 160 V 480 H 48 c -8.837,0 -16,-7.163 -16,-16 V 48 c 0,-8.837 7.163,-16 16,-16 h 240 v 64 c 0,17.673 14.327,32 32,32 h 64 v 48 h 32 v -64 c 0.025,-4.253 -1.645,-8.341 -4.64,-11.36 z"
         inkscape:connector-curvature="0" />
    </g>
  </g>
  <g
     id="g831"
     transform="matrix(0.26458333,0,0,0.26458333,16.625221,57.962876)" />
  <g
     id="g833"
     transform="matrix(0.26458333,0,0,0.26458333,16.625221,57.962876)" />
  <g
     id="g835"
     transform="matrix(0.26458333,0,0,0.26458333,16.625221,57.962876)" />
  <g
     id="g837"
     transform="matrix(0.26458333,0,0,0.26458333,16.625221,57.962876)" />
  <g
     id="g839"
     transform="matrix(0.26458333,0,0,0.26458333,16.625221,57.962876)" />
  <g
     id="g841"
     transform="matrix(0.26458333,0,0,0.26458333,16.625221,57.962876)" />
  <g
     id="g843"
     transform="matrix(0.26458333,0,0,0.26458333,16.625221,57.962876)" />
  <g
     id="g845"
     transform="matrix(0.26458333,0,0,0.26458333,16.625221,57.962876)" />
  <g
     id="g847"
     transform="matrix(0.26458333,0,0,0.26458333,16.625221,57.962876)" />
  <g
     id="g849"
     transform="matrix(0.26458333,0,0,0.26458333,16.625221,57.962876)" />
  <g
     id="g851"
     transform="matrix(0.26458333,0,0,0.26458333,16.625221,57.962876)" />
  <g
     id="g853"
     transform="matrix(0.26458333,0,0,0.26458333,16.625221,57.962876)" />
  <g
     id="g855"
     transform="matrix(0.26458333,0,0,0.26458333,16.625221,57.962876)" />
  <g
     id="g857"
     transform="matrix(0.26458333,0,0,0.26458333,16.625221,57.962876)" />
  <g
     id="g859"
     transform="matrix(0.26458333,0,0,0.26458333,16.625221,57.962876)" />
  <flowRoot
     style="font-style:normal;font-weight:normal;font-size:40px;line-height:125%;font-family:Sans;letter-spacing:0px;word-spacing:0px;fill:#000000;fill-opacity:1;stroke:none;stroke-width:1px;stroke-linecap:butt;stroke-linejoin:miter;stroke-opacity:1"
     id="flowRoot922"
     xml:space="preserve"
     transform="matrix(0.26458333,0,0,0.26458333,16.625221,57.962876)"><flowRegion
       id="flowRegion924"><rect
         y="456.95435"
         x="116.9939"
         height="209.72241"
         width="447.1767"
         id="rect926" /></flowRegion><flowPara
       id="flowPara928" /></flowRoot>  <flowRoot
     transform="matrix(0.35433296,0,0,0.35433296,-14.072211,-51.220261)"
     style="font-style:normal;font-variant:normal;font-weight:normal;font-stretch:condensed;font-size:159.29776001px;line-height:125%;font-family:Impact;-inkscape-font-specification:'Impact, Condensed';font-variant-ligatures:normal;font-variant-caps:normal;font-variant-numeric:normal;font-feature-settings:normal;text-align:start;letter-spacing:0px;word-spacing:0px;writing-mode:lr-tb;text-anchor:start;fill:#000000;fill-opacity:1;stroke:none;stroke-width:1px;stroke-linecap:butt;stroke-linejoin:miter;stroke-opacity:1"
     id="flowRoot930"
     xml:space="preserve"><flowRegion
       style="font-style:normal;font-variant:normal;font-weight:normal;font-stretch:condensed;font-size:159.29776001px;font-family:Impact;-inkscape-font-specification:'Impact, Condensed';font-variant-ligatures:normal;font-variant-caps:normal;font-variant-numeric:normal;font-feature-settings:normal;text-align:start;writing-mode:lr-tb;text-anchor:start"
       id="flowRegion932"><rect
         style="font-style:normal;font-variant:normal;font-weight:normal;font-stretch:condensed;font-size:159.29776001px;font-family:Impact;-inkscape-font-specification:'Impact, Condensed';font-variant-ligatures:normal;font-variant-caps:normal;font-variant-numeric:normal;font-feature-settings:normal;text-align:start;writing-mode:lr-tb;text-anchor:start"
         y="482.08636"
         x="121.32701"
         height="191.91245"
         width="456.81842"
         id="rect934" /></flowRegion><flowPara
       id="flowPara936">option</flowPara></flowRoot></svg>
