<?xml version="1.0" encoding="iso-8859-1"?>
<!-- Generator: Adobe Illustrator 19.0.0, SVG Export Plug-In . SVG Version: 6.00 Build 0)  -->
<svg version="1.1" id="Layer_1" xmlns="http://www.w3.org/2000/svg" xmlns:xlink="http://www.w3.org/1999/xlink" x="0px" y="0px"
	 viewBox="0 0 445 445" style="enable-background:new 0 0 445 445;" xml:space="preserve">
<g id="XMLID_45_">
	<g>
		<rect x="47.5" y="402.5" style="fill:#878D92;" width="350" height="35"/>
		<polygon style="fill:#E7ECED;" points="412.5,7.5 412.5,77.5 257.5,77.5 257.5,367.5 187.5,367.5 187.5,77.5 32.5,77.5 32.5,7.5 
					"/>
	</g>
	<g>
		<g>
			<polygon points="265,367.5 250,367.5 250,70 405,70 405,15 40,15 40,70 195,70 195,367.5 180,367.5 180,85 25,85 25,0 420,0 
				420,85 265,85 			"/>
		</g>
		<g>
			<path d="M405,445H40v-50h365V445z M55,430h335v-20H55V430z"/>
		</g>
	</g>
</g>
<g>
</g>
<g>
</g>
<g>
</g>
<g>
</g>
<g>
</g>
<g>
</g>
<g>
</g>
<g>
</g>
<g>
</g>
<g>
</g>
<g>
</g>
<g>
</g>
<g>
</g>
<g>
</g>
<g>
</g>
</svg>
