<?xml version="1.0" encoding="UTF-8" standalone="no"?>
<svg
   xmlns:dc="http://purl.org/dc/elements/1.1/"
   xmlns:cc="http://creativecommons.org/ns#"
   xmlns:rdf="http://www.w3.org/1999/02/22-rdf-syntax-ns#"
   xmlns:svg="http://www.w3.org/2000/svg"
   xmlns="http://www.w3.org/2000/svg"
   xmlns:sodipodi="http://sodipodi.sourceforge.net/DTD/sodipodi-0.dtd"
   xmlns:inkscape="http://www.inkscape.org/namespaces/inkscape"
   id="Capa_1"
   enable-background="new 0 0 512 512"
   height="512"
   viewBox="0 0 512 512"
   width="512"
   version="1.1"
   sodipodi:docname="fieldset.svg"
   inkscape:version="0.92.3 (2405546, 2018-03-11)"
   inkscape:export-filename="/home/radoslaw/Dokumenty/Programy/edytor_html/e_html_python/icons/fieldset.png"
   inkscape:export-xdpi="9.3800001"
   inkscape:export-ydpi="9.3800001">
  <metadata
     id="metadata1706">
    <rdf:RDF>
      <cc:Work
         rdf:about="">
        <dc:format>image/svg+xml</dc:format>
        <dc:type
           rdf:resource="http://purl.org/dc/dcmitype/StillImage" />
        <dc:title></dc:title>
      </cc:Work>
    </rdf:RDF>
  </metadata>
  <defs
     id="defs1704" />
  <sodipodi:namedview
     pagecolor="#ffffff"
     bordercolor="#666666"
     borderopacity="1"
     objecttolerance="10"
     gridtolerance="10"
     guidetolerance="10"
     inkscape:pageopacity="0"
     inkscape:pageshadow="2"
     inkscape:window-width="1920"
     inkscape:window-height="1025"
     id="namedview1702"
     showgrid="false"
     inkscape:zoom="0.921875"
     inkscape:cx="159.45215"
     inkscape:cy="345.46914"
     inkscape:window-x="0"
     inkscape:window-y="27"
     inkscape:window-maximized="1"
     inkscape:current-layer="Capa_1" />
  <g
     id="g1815">
    <path
       d="M 493.431,50.675 H 142.248 c -4.312,0 -8.231,-2.504 -10.044,-6.417 L 118.149,13.916 C 116.337,10.003 112.417,7.5 108.105,7.5 H 18.569 C 12.456,7.5 7.5,12.456 7.5,18.569 v 474.862 c 0,6.113 4.956,11.069 11.069,11.069 h 29.16 L 504.5,89.322 V 61.744 c 0,-6.113 -4.956,-11.069 -11.069,-11.069 z"
       id="path1627"
       inkscape:connector-curvature="0"
       style="fill:#000000;fill-opacity:0.56572771" />
    <path
       d="m 90.649,13.916 14.055,30.342 c 1.812,3.913 5.732,6.417 10.044,6.417 h 27.5 c -4.312,0 -8.231,-2.504 -10.044,-6.417 L 118.149,13.916 C 116.337,10.003 112.417,7.5 108.105,7.5 h -27.5 c 4.312,0 8.231,2.504 10.044,6.416 z"
       id="path1629"
       inkscape:connector-curvature="0"
       style="fill:#191919;fill-opacity:1" />
    <path
       d="m 493.431,50.675 h -27.5 c 6.113,0 11.069,4.956 11.069,11.069 v 49.097 L 504.5,89.322 V 61.744 c 0,-6.113 -4.956,-11.069 -11.069,-11.069 z"
       id="path1631"
       inkscape:connector-curvature="0"
       style="fill:#191919;fill-opacity:1" />
    <path
       d="M 493.431,504.5 H 47.729 V 105.06 c 0,-8.692 7.046,-15.738 15.738,-15.738 H 504.5 v 404.109 c 0,6.113 -4.956,11.069 -11.069,11.069 z"
       id="path1633"
       inkscape:connector-curvature="0"
       style="fill:#f9f6f9" />
    <path
       d="m 477,89.322 v 404.109 c 0,6.113 -4.956,11.069 -11.069,11.069 h 27.5 c 6.113,0 11.069,-4.956 11.069,-11.069 V 89.322 Z"
       id="path1635"
       inkscape:connector-curvature="0"
       style="fill:#dddaec" />
    <path
       d="m 452.364,477.292 h -83.721 c -4.346,0 -7.868,-3.523 -7.868,-7.868 v -30.215 c 0,-4.346 3.523,-7.868 7.868,-7.868 h 83.721 c 4.346,0 7.868,3.523 7.868,7.868 v 30.215 c 0,4.346 -3.523,7.868 -7.868,7.868 z"
       id="path1637"
       inkscape:connector-curvature="0"
       style="fill:#b4b4b4;fill-opacity:1" />
    <path
       d="m 452.364,431.341 h -26.439 c 4.345,0 7.868,3.523 7.868,7.868 v 30.215 c 0,4.346 -3.523,7.868 -7.868,7.868 h 26.439 c 4.346,0 7.868,-3.523 7.868,-7.868 v -30.215 c 0,-4.346 -3.523,-7.868 -7.868,-7.868 z"
       id="path1639"
       inkscape:connector-curvature="0"
       style="fill:#868686;fill-opacity:1" />
    <g
       id="g1645">
      <path
         d="M 228.287,180.278 H 93.457 c -4.142,0 -7.499,-3.357 -7.499,-7.499 v -38.053 c 0,-4.142 3.357,-7.499 7.499,-7.499 h 134.83 c 4.142,0 7.499,3.357 7.499,7.499 v 38.053 c 0,4.142 -3.358,7.499 -7.499,7.499 z"
         id="path1641"
         inkscape:connector-curvature="0"
         style="fill:#dddaec" />
      <path
         d="m 228.287,127.227 h -25.078 c 4.142,0 7.499,3.357 7.499,7.499 v 38.053 c 0,4.142 -3.357,7.499 -7.499,7.499 h 25.078 c 4.142,0 7.499,-3.357 7.499,-7.499 v -38.053 c 0,-4.142 -3.358,-7.499 -7.499,-7.499 z"
         id="path1643"
         inkscape:connector-curvature="0"
         style="fill:#d0cee7" />
    </g>
    <path
       d="M 418.443,262.832 H 93.457 c -4.142,0 -7.499,-3.357 -7.499,-7.499 V 217.28 c 0,-4.142 3.357,-7.499 7.499,-7.499 h 324.986 c 4.142,0 7.499,3.357 7.499,7.499 v 38.053 c 0,4.141 -3.357,7.499 -7.499,7.499 z"
       id="path1647"
       inkscape:connector-curvature="0"
       style="fill:#dddaec" />
    <path
       d="m 418.443,209.781 h -25.078 c 4.142,0 7.499,3.357 7.499,7.499 v 38.053 c 0,4.142 -3.357,7.499 -7.499,7.499 h 25.078 c 4.142,0 7.499,-3.357 7.499,-7.499 V 217.28 c 0,-4.142 -3.357,-7.499 -7.499,-7.499 z"
       id="path1649"
       inkscape:connector-curvature="0"
       style="fill:#d0cee7" />
    <g
       id="g1655">
      <path
         d="M 418.443,400.252 H 93.457 c -4.142,0 -7.499,-3.357 -7.499,-7.499 v -92.92 c 0,-4.142 3.357,-7.499 7.499,-7.499 h 324.986 c 4.142,0 7.499,3.357 7.499,7.499 v 92.92 c 0,4.142 -3.357,7.499 -7.499,7.499 z"
         id="path1651"
         inkscape:connector-curvature="0"
         style="fill:#dddaec" />
      <path
         d="m 418.443,292.334 h -25.078 c 4.142,0 7.499,3.357 7.499,7.499 v 92.92 c 0,4.142 -3.357,7.499 -7.499,7.499 h 25.078 c 4.142,0 7.499,-3.357 7.499,-7.499 v -92.92 c 0,-4.142 -3.357,-7.499 -7.499,-7.499 z"
         id="path1653"
         inkscape:connector-curvature="0"
         style="fill:#d0cee7" />
    </g>
    <g
       id="g1661">
      <path
         d="m 418.443,180.278 h -134.83 c -4.142,0 -7.499,-3.357 -7.499,-7.499 v -38.053 c 0,-4.142 3.357,-7.499 7.499,-7.499 h 134.83 c 4.142,0 7.499,3.357 7.499,7.499 v 38.053 c 0,4.142 -3.357,7.499 -7.499,7.499 z"
         id="path1657"
         inkscape:connector-curvature="0"
         style="fill:#dddaec" />
      <path
         d="m 418.443,127.227 h -25.078 c 4.142,0 7.499,3.357 7.499,7.499 v 38.053 c 0,4.142 -3.357,7.499 -7.499,7.499 h 25.078 c 4.142,0 7.499,-3.357 7.499,-7.499 v -38.053 c 0,-4.142 -3.357,-7.499 -7.499,-7.499 z"
         id="path1659"
         inkscape:connector-curvature="0"
         style="fill:#d0cee7" />
    </g>
    <path
       inkscape:connector-curvature="0"
       id="path1663"
       d="m 43.361,38.474 c -4.142,0 -7.5,3.357 -7.5,7.5 0,4.143 3.358,7.5 7.5,7.5 h 42.597 c 4.142,0 7.5,-3.357 7.5,-7.5 0,-4.143 -3.358,-7.5 -7.5,-7.5 z" />
    <path
       inkscape:connector-curvature="0"
       id="path1665"
       d="m 353.274,439.209 v 30.215 c 0,8.474 6.895,15.368 15.368,15.368 h 83.722 c 8.474,0 15.368,-6.895 15.368,-15.368 v -30.215 c 0,-8.474 -6.895,-15.368 -15.368,-15.368 h -83.722 c -8.473,0 -15.368,6.894 -15.368,15.368 z m 99.458,0 v 30.215 c 0,0.203 -0.165,0.368 -0.368,0.368 h -83.722 c -0.203,0 -0.368,-0.165 -0.368,-0.368 v -30.215 c 0,-0.203 0.165,-0.368 0.368,-0.368 h 83.722 c 0.203,0 0.368,0.165 0.368,0.368 z" />
    <path
       inkscape:connector-curvature="0"
       id="path1667"
       d="m 493.431,43.175 h -93.719 c -4.143,0 -7.5,3.357 -7.5,7.5 0,4.143 3.357,7.5 7.5,7.5 h 93.719 c 1.968,0 3.568,1.602 3.568,3.569 V 81.822 H 63.467 c -12.813,0 -23.238,10.424 -23.238,23.237 v 258.357 c 0,4.143 3.358,7.5 7.5,7.5 4.142,0 7.5,-3.357 7.5,-7.5 V 105.06 c 0,-4.542 3.695,-8.237 8.238,-8.237 H 497 v 396.608 c 0,1.968 -1.601,3.569 -3.568,3.569 H 55.229 V 393.403 c 0,-4.143 -3.358,-7.5 -7.5,-7.5 -4.142,0 -7.5,3.357 -7.5,7.5 V 497 H 18.569 C 16.601,497 15,495.398 15,493.431 V 18.569 C 15,16.602 16.601,15 18.569,15 h 89.536 c 1.385,0 2.657,0.812 3.239,2.068 l 14.055,30.343 c 3.029,6.539 9.643,10.764 16.849,10.764 h 227.478 c 4.143,0 7.5,-3.357 7.5,-7.5 0,-4.143 -3.357,-7.5 -7.5,-7.5 H 142.248 c -1.385,0 -2.656,-0.812 -3.238,-2.068 L 124.954,10.763 C 121.925,4.225 115.311,0 108.105,0 H 18.569 C 8.33,0 0,8.33 0,18.569 V 493.43 C 0,503.67 8.33,512 18.569,512 H 493.431 C 503.67,512 512,503.67 512,493.431 V 61.744 c 0,-10.239 -8.33,-18.569 -18.569,-18.569 z" />
    <path
       inkscape:connector-curvature="0"
       id="path1669"
       d="m 93.457,187.778 h 134.83 c 8.271,0 14.999,-6.729 14.999,-14.999 v -38.054 c 0,-8.27 -6.729,-14.998 -14.999,-14.998 H 93.457 c -8.27,0 -14.999,6.729 -14.999,14.998 v 38.054 c 0,8.271 6.729,14.999 14.999,14.999 z m 134.828,-53.052 0.01,38.053 -134.837,0.001 -0.001,-38.052 z" />
    <path
       inkscape:connector-curvature="0"
       id="path1671"
       d="m 107.574,164.48 h 76.978 c 4.142,0 7.5,-3.357 7.5,-7.5 0,-4.143 -3.358,-7.5 -7.5,-7.5 h -76.978 c -4.142,0 -7.5,3.357 -7.5,7.5 0,4.143 3.358,7.5 7.5,7.5 z" />
    <path
       inkscape:connector-curvature="0"
       id="path1673"
       d="m 100.074,239.533 c 0,4.143 3.358,7.5 7.5,7.5 h 270.751 c 4.143,0 7.5,-3.357 7.5,-7.5 0,-4.143 -3.357,-7.5 -7.5,-7.5 H 107.574 c -4.142,0 -7.5,3.358 -7.5,7.5 z" />
    <path
       inkscape:connector-curvature="0"
       id="path1675"
       d="m 78.458,392.753 c 0,8.271 6.729,14.999 14.999,14.999 h 324.986 c 8.271,0 14.999,-6.729 14.999,-14.999 v -92.92 c 0,-8.271 -6.729,-14.999 -14.999,-14.999 H 93.457 c -8.27,0 -14.999,6.729 -14.999,14.999 z m 339.984,-92.92 0.011,92.919 -324.995,10e-4 -0.001,-92.919 z" />
    <path
       inkscape:connector-curvature="0"
       id="path1677"
       d="m 107.574,329.587 h 76.978 c 4.142,0 7.5,-3.357 7.5,-7.5 0,-4.143 -3.358,-7.5 -7.5,-7.5 h -76.978 c -4.142,0 -7.5,3.357 -7.5,7.5 0,4.143 3.358,7.5 7.5,7.5 z" />
    <path
       inkscape:connector-curvature="0"
       id="path1679"
       d="m 107.574,353.793 h 25.96 c 4.142,0 7.5,-3.357 7.5,-7.5 0,-4.143 -3.358,-7.5 -7.5,-7.5 h -25.96 c -4.142,0 -7.5,3.357 -7.5,7.5 0,4.143 3.358,7.5 7.5,7.5 z" />
    <path
       inkscape:connector-curvature="0"
       id="path1681"
       d="m 151.092,346.293 c 0,4.143 3.358,7.5 7.5,7.5 h 89.277 c 4.142,0 7.5,-3.357 7.5,-7.5 0,-4.143 -3.358,-7.5 -7.5,-7.5 h -89.277 c -4.143,0 -7.5,3.357 -7.5,7.5 z" />
    <path
       inkscape:connector-curvature="0"
       id="path1683"
       d="m 276.115,353.793 h 38.096 c 4.143,0 7.5,-3.357 7.5,-7.5 0,-4.143 -3.357,-7.5 -7.5,-7.5 h -38.096 c -4.143,0 -7.5,3.357 -7.5,7.5 0,4.143 3.357,7.5 7.5,7.5 z" />
    <path
       inkscape:connector-curvature="0"
       id="path1685"
       d="m 107.574,377.999 h 69.248 c 4.142,0 7.5,-3.357 7.5,-7.5 0,-4.143 -3.358,-7.5 -7.5,-7.5 h -69.248 c -4.142,0 -7.5,3.357 -7.5,7.5 0,4.143 3.358,7.5 7.5,7.5 z" />
    <path
       inkscape:connector-curvature="0"
       id="path1687"
       d="M 308.564,362.999 H 201.162 c -4.142,0 -7.5,3.357 -7.5,7.5 0,4.143 3.358,7.5 7.5,7.5 h 107.402 c 4.143,0 7.5,-3.357 7.5,-7.5 0,-4.143 -3.357,-7.5 -7.5,-7.5 z" />
    <path
       inkscape:connector-curvature="0"
       id="path1689"
       d="m 333.624,377.999 h 49.752 c 4.143,0 7.5,-3.357 7.5,-7.5 0,-4.143 -3.357,-7.5 -7.5,-7.5 h -49.752 c -4.143,0 -7.5,3.357 -7.5,7.5 0,4.143 3.357,7.5 7.5,7.5 z" />
    <path
       inkscape:connector-curvature="0"
       id="path1691"
       d="M 418.443,119.728 H 283.614 c -8.271,0 -14.999,6.729 -14.999,14.998 v 38.054 c 0,8.271 6.729,14.999 14.999,14.999 h 134.829 c 8.271,0 14.999,-6.729 14.999,-14.999 v -38.054 c 0,-8.27 -6.728,-14.998 -14.999,-14.998 z m -134.828,53.051 -0.001,-38.052 134.828,-0.002 0.011,38.053 z" />
    <path
       inkscape:connector-curvature="0"
       id="path1693"
       d="M 374.709,149.48 H 297.73 c -4.143,0 -7.5,3.357 -7.5,7.5 0,4.143 3.357,7.5 7.5,7.5 h 76.979 c 4.143,0 7.5,-3.357 7.5,-7.5 0,-4.143 -3.358,-7.5 -7.5,-7.5 z" />
    <path
       inkscape:connector-curvature="0"
       id="path1695"
       d="m 78.458,255.333 c 0,8.271 6.729,14.999 14.999,14.999 h 324.986 c 8.271,0 14.999,-6.729 14.999,-14.999 v -38.054 c 0,-8.271 -6.729,-14.999 -14.999,-14.999 h -52.421 c -4.143,0 -7.5,3.357 -7.5,7.5 0,4.143 3.357,7.5 7.5,7.5 l 52.42,-0.001 10e-4,38.053 -324.985,0.001 -0.001,-38.053 h 242.578 c 4.143,0 7.5,-3.357 7.5,-7.5 0,-4.143 -3.357,-7.5 -7.5,-7.5 H 93.457 c -8.27,0 -14.999,6.729 -14.999,14.999 z" />
  </g>
</svg>
